<svg width="32" height="32" viewBox="0 0 32 32" fill="none" xmlns="http://www.w3.org/2000/svg">
  <defs>
    <linearGradient id="goldGradient" x1="0%" y1="0%" x2="100%" y2="100%">
      <stop offset="0%" stop-color="#F4D03F"/>
      <stop offset="50%" stop-color="#D4AF37"/>
      <stop offset="100%" stop-color="#B8960C"/>
    </linearGradient>
  </defs>
  <!-- Background circle -->
  <circle cx="16" cy="16" r="15" fill="#1A1A1E" stroke="url(#goldGradient)" stroke-width="2"/>
  <!-- Shutter blades simplified -->
  <path d="M16 4 L18 10 L16 9 L14 10 Z" fill="url(#goldGradient)" opacity="0.6"/>
  <path d="M26 10 L21 14 L21 12 L23 10 Z" fill="url(#goldGradient)" opacity="0.6"/>
  <path d="M26 22 L18 18 L20 17 L23 19 Z" fill="url(#goldGradient)" opacity="0.6"/>
  <path d="M16 28 L14 22 L16 23 L18 22 Z" fill="url(#goldGradient)" opacity="0.6"/>
  <path d="M6 22 L11 18 L11 20 L9 22 Z" fill="url(#goldGradient)" opacity="0.6"/>
  <path d="M6 10 L14 14 L12 15 L9 13 Z" fill="url(#goldGradient)" opacity="0.6"/>
  <!-- Rocket in center -->
  <path d="M16 6C16 6 12 10 12 15V20L14 22V18H18V22L20 20V15C20 10 16 6 16 6Z" fill="url(#goldGradient)"/>
  <circle cx="16" cy="13" r="2" fill="#1A1A1E"/>
  <!-- Flames -->
  <path d="M14 22L15 26L16 24L17 26L18 22" stroke="#F4D03F" stroke-width="1.5" stroke-linecap="round" fill="none"/>
</svg>
